<svg width="30" height="30" viewBox="0 0 30 30" fill="none" xmlns="http://www.w3.org/2000/svg">
<path d="M5.32369 20.742C3.92595 18.3857 3.43645 15.6002 3.9471 12.9086C4.45776 10.217 5.93344 7.80439 8.09705 6.1238C10.2607 4.44321 12.9634 3.61026 15.6976 3.78137C18.4319 3.95247 21.0097 5.11585 22.9469 7.05306C24.8841 8.99027 26.0475 11.568 26.2186 14.3023C26.3898 17.0366 25.5568 19.7393 23.8763 21.9029C22.1957 24.0665 19.7831 25.5422 17.0914 26.0529C14.3998 26.5636 11.6144 26.0741 9.25811 24.6764L9.25814 24.6762L5.3726 25.7864C5.21185 25.8323 5.04173 25.8344 4.87988 25.7925C4.71804 25.7506 4.57035 25.6661 4.45213 25.5479C4.33391 25.4297 4.24946 25.282 4.20752 25.1201C4.16558 24.9583 4.16769 24.7882 4.21362 24.6274L5.32377 20.7419L5.32369 20.742Z" stroke="white" stroke-width="2" stroke-linecap="round" stroke-linejoin="round"/>
<path d="M17.8258 21.5625C16.5924 21.5642 15.3708 21.3226 14.231 20.8514C13.0912 20.3802 12.0555 19.6888 11.1834 18.8166C10.3112 17.9445 9.61977 16.9088 9.14858 15.769C8.6774 14.6292 8.43576 13.4076 8.43751 12.1742C8.4403 11.306 8.78732 10.4744 9.40245 9.86178C10.0176 9.24915 10.8506 8.90551 11.7188 8.90625V8.90625C11.8611 8.90625 12.001 8.9439 12.1242 9.01537C12.2473 9.08684 12.3494 9.1896 12.4201 9.31324L13.7901 11.7108C13.8727 11.8554 13.9153 12.0194 13.9136 12.1859C13.9118 12.3524 13.8657 12.5155 13.78 12.6583L12.6797 14.4921C13.2458 15.7483 14.2517 16.7542 15.5079 17.3203V17.3203L17.3417 16.22C17.4845 16.1343 17.6476 16.0882 17.8141 16.0864C17.9806 16.0847 18.1446 16.1273 18.2892 16.2099L20.6868 17.5799C20.8104 17.6506 20.9132 17.7527 20.9846 17.8758C21.0561 17.999 21.0938 18.1389 21.0938 18.2813V18.2813C21.0913 19.1484 20.7466 19.9796 20.1347 20.594C19.5227 21.2084 18.693 21.5565 17.8258 21.5625V21.5625Z" stroke="white" stroke-width="2" stroke-linecap="round" stroke-linejoin="round"/>
</svg>
